<?xml version="1.0" encoding="utf-8"?>
<!-- Generator: Adobe Illustrator 25.0.1, SVG Export Plug-In . SVG Version: 6.00 Build 0)  -->
<svg version="1.1" id="Layer_1" xmlns="http://www.w3.org/2000/svg" xmlns:xlink="http://www.w3.org/1999/xlink" x="0px" y="0px"
	 viewBox="0 0 430 430" style="enable-background:new 0 0 430 430;" xml:space="preserve">
<style type="text/css">
	.st0{fill:#08A88A;}
	.st1{fill:none;stroke:#121331;stroke-width:12;stroke-linecap:round;stroke-linejoin:round;stroke-miterlimit:10;}
	.st2{fill:none;stroke:#08A88A;stroke-width:12;stroke-linecap:round;stroke-linejoin:round;stroke-miterlimit:10;}
	.st3{fill:#121331;}
	.st4{fill:none;}
</style>
<g>
	<g>
		<path class="st0" d="M307.22,266.86h-8.41c-3.31,0-6-2.69-6-6s2.69-6,6-6h8.41c13.48,0,25.11-8.31,29.64-20.47
			c-0.83-0.04-1.66-0.06-2.48-0.06h-8.33c-3.31,0-6-2.69-6-6s2.69-6,6-6h8.33c3.66,0,7.38,0.33,11.06,0.97
			c3.23,0.57,5.41,3.62,4.89,6.86C346.92,251.42,328.79,266.86,307.22,266.86z"/>
		<path class="st0" d="M303.19,226.54h-1.09c-19.2,0-36.5-10.66-45.13-27.82c-1.49-2.96-0.3-6.57,2.66-8.06
			c2.96-1.49,6.57-0.3,8.06,2.66c6.58,13.09,19.77,21.22,34.41,21.22h1.09c6.99,0,13.83-1.89,19.77-5.45
			c11.73-7.04,18.73-19.39,18.73-33.05v-24.42c0-3.31,2.69-6,6-6s6,2.69,6,6v24.42c0,17.64-9.41,34.24-24.55,43.33
			C321.33,224.06,312.36,226.54,303.19,226.54z"/>
		<path class="st1" d="M278.24,213.61"/>
		<path class="st1" d="M326.05,228.33"/>
		<path class="st2" d="M247.45,155.83"/>
		<path class="st0" d="M347.69,159.9c-1.07,0-2.13-0.28-3.08-0.85c-1.94-1.16-3.06-3.32-2.9-5.58c0,0,0,0,0,0
			c0,0,0.03-0.59-0.01-1.61c-0.18-5.25-2.14-21.94-18.84-33.48c-5.35,10.04-19.24,28.26-52.56,38.64c-3.17,0.99-6.53-0.78-7.51-3.94
			c-0.99-3.16,0.78-6.53,3.94-7.51c39.97-12.45,47.28-36.44,47.58-37.45c0.47-1.76,1.71-3.18,3.38-3.91
			c1.66-0.73,3.56-0.64,5.18,0.2c10.51,5.48,17.45,12.54,22.03,19.58c-0.16-2.57-0.31-5.26-0.39-8.02c0-0.06,0-0.12,0-0.18
			c0-3.31,2.69-6.01,6-6.01c3.28,0,5.95,2.62,6,5.89c0.14,4.5,0.44,8.73,0.73,12.83c1,14.17,1.8,25.36-6.33,30.48
			C349.91,159.59,348.8,159.9,347.69,159.9z"/>
		<path class="st2" d="M257.6,154.21"/>
		<path class="st2" d="M347.69,153.9"/>
		<path class="st0" d="M326.05,234.26c-0.08,0-0.16,0-0.24,0c-3.22-0.13-5.76-2.78-5.76-6l0.01-14.04c0-3.31,2.69-6,6-6c0,0,0,0,0,0
			c3.31,0,6,2.69,6,6v13.74c0,0.26-0.01,0.51-0.03,0.77C331.78,231.87,329.16,234.26,326.05,234.26z"/>
		<path class="st3" d="M261.03,235.33H261c-3.31,0-6-2.69-6-6s2.69-6,6-6s6.01,2.69,6.01,6S264.34,235.33,261.03,235.33z"/>
		<path class="st0" d="M278.25,234.26c-3.11,0-5.73-2.39-5.98-5.53c-0.02-0.26-0.03-0.51-0.03-0.77v-14.35c0-3.31,2.69-6,6-6
			c0,0,0,0,0,0c3.31,0,6,2.68,6,6l0.01,14.65c0,3.22-2.54,5.87-5.76,6C278.41,234.26,278.33,234.26,278.25,234.26z M281.65,227.99
			l2.6,0.02c0-0.02,0-0.03,0-0.05L281.65,227.99z"/>
		<path class="st0" d="M321.07,337.83h-8.67c-3.31,0-6-2.69-6-6s2.69-6,6-6h8.57c0.11-0.01,0.23-0.01,0.34-0.01
			c4.48,0,7.26-1.41,11.46-3.53c6.1-3.09,14.46-7.33,31.45-8.66c3.3-0.27,6.19,2.21,6.45,5.51c0.26,3.3-2.21,6.19-5.51,6.45
			c-14.62,1.14-21.17,4.47-26.96,7.4c-4.85,2.46-9.44,4.78-16.66,4.83C321.39,337.82,321.24,337.83,321.07,337.83z M320.78,325.84
			c-0.07,0.01-0.14,0.01-0.21,0.02C320.64,325.85,320.71,325.85,320.78,325.84z"/>
		<path class="st0" d="M240.97,243.3c-3.31,0-6-2.69-6-6c0-2.19,1.18-4.11,2.93-5.16c0.31-0.2,0.63-0.4,0.95-0.6
			c6.49-3.96,13.57-6.68,21.03-8.1c3.26-0.62,6.4,1.52,7.01,4.78c0.62,3.26-1.52,6.4-4.78,7.01c-6.04,1.14-11.77,3.36-17.04,6.57
			c-0.29,0.17-0.55,0.34-0.8,0.51C243.29,242.95,242.14,243.3,240.97,243.3z"/>
		<path class="st0" d="M368.05,245.27c-0.13,0-0.26,0-0.39-0.01c-3.31-0.21-5.82-3.07-5.6-6.37c1.55-24.01-1-53.84-7.8-91.17
			c-2.21-12.44-5.16-21.94-9.04-29.07c-1.88-3.46-3.95-6.35-6.32-8.84c-7.53-7.91-18.31-11.65-33.93-11.77
			c-12.51,0-22.63,4.06-30.9,12.42c-2.33,2.36-6.13,2.38-8.49,0.05c-2.36-2.33-2.38-6.13-0.05-8.48
			c10.49-10.6,23.77-15.98,39.48-15.98c18.87,0.14,32.78,5.21,42.58,15.49c3.06,3.21,5.8,7.04,8.17,11.38
			c4.51,8.29,7.88,18.98,10.31,32.68c6.97,38.28,9.57,69.06,7.96,94.06C373.82,242.83,371.18,245.27,368.05,245.27z"/>
		<path class="st0" d="M321.07,337.83h-8.67c-3.31,0-6-2.69-6-6s2.69-6,6-6h8.57c0.11-0.01,0.23-0.01,0.34-0.01
			c4.48,0,7.26-1.41,11.46-3.53c6.09-3.09,14.43-7.31,31.36-8.65c0.34-0.03,0.67-0.04,0.99-0.03h15.36c2.83,0,5.14-2.31,5.14-5.14
			v-22.91c0-16.32-7.89-31.81-21.1-41.44c-6.25-4.55-13.56-7.66-21.15-9c-3.26-0.58-5.44-3.69-4.86-6.95
			c0.58-3.26,3.68-5.44,6.95-4.86c9.38,1.66,18.41,5.5,26.13,11.12c16.3,11.88,26.04,31,26.04,51.14v22.91
			c0,9.45-7.69,17.14-17.14,17.14h-15.55c-14.46,1.16-20.97,4.46-26.73,7.38c-4.85,2.46-9.44,4.78-16.66,4.83
			C321.39,337.82,321.24,337.83,321.07,337.83z M320.79,325.84c-0.07,0.01-0.14,0.01-0.21,0.02
			C320.64,325.85,320.72,325.85,320.79,325.84z"/>
		<path class="st0" d="M240.97,243.3c-3.31,0-6-2.69-6-6c0-2.19,1.18-4.11,2.93-5.16c0.31-0.2,0.63-0.4,0.95-0.6
			c6.49-3.96,13.57-6.68,21.03-8.1c0.08-0.02,0.17-0.03,0.25-0.04c3.76-0.71,7.66-1.07,11.59-1.07h5.69
			c1.04-0.15,2.13-0.02,3.14,0.4c2.24,0.93,3.7,3.12,3.7,5.54c0,0.01,0,0.02,0,0.03c0,0.01,0,0.02,0,0.03c0,3.31-2.69,6-6,6h-6.53
			c-3.25,0-6.46,0.3-9.55,0.9c-0.09,0.02-0.18,0.03-0.27,0.05c-5.96,1.16-11.62,3.35-16.83,6.53c-0.29,0.17-0.55,0.34-0.8,0.51
			C243.29,242.95,242.14,243.3,240.97,243.3z"/>
	</g>
	<path class="st4" d="M350.48,115.76"/>
</g>
<g>
	<g>
		<path class="st0" d="M168.3,237.21c-0.34,0-0.69-0.03-1.04-0.09c-2.99-0.52-6.01-0.79-8.98-0.79h-8.33c-3.31,0-6-2.69-6-6
			s2.69-6,6-6h8.33c3.66,0,7.38,0.33,11.05,0.97c3.26,0.57,5.45,3.68,4.87,6.95C173.69,235.16,171.16,237.21,168.3,237.21z"/>
		<path class="st0" d="M127.08,228.54h-1.09c-27.85,0-50.5-22.65-50.5-50.5v-21.83c0-3.31,2.69-6,6-6s6,2.69,6,6v21.83
			c0,21.23,17.27,38.5,38.5,38.5h1.09c6.98,0,13.81-1.89,19.78-5.46c6.88-4.13,12.23-10.19,15.46-17.52
			c1.34-3.03,4.88-4.4,7.91-3.07c3.03,1.34,4.4,4.88,3.07,7.91c-4.24,9.6-11.25,17.54-20.27,22.96
			C145.2,226.06,136.23,228.54,127.08,228.54z"/>
		<path class="st1" d="M102.13,215.61"/>
		<path class="st1" d="M149.94,230.33"/>
		<path class="st2" d="M71.34,157.83"/>
		<path class="st0" d="M78.65,162.83c-1.39,0-2.75-0.48-3.84-1.39c-1.39-1.16-2.18-2.88-2.16-4.69c0.01-0.89,0.3-21.9,3.33-33
			c0.02-0.09,0.05-0.17,0.08-0.26c0.69-2.41,1.43-4.21,2.33-5.63c1.77-2.8,5.48-3.63,8.28-1.85c2.8,1.77,3.63,5.48,1.85,8.28
			c-0.07,0.11-0.43,0.73-0.95,2.56c-0.02,0.09-0.05,0.18-0.08,0.27c-1.47,5.56-2.24,14.96-2.6,22.09
			c44.93-11.78,52.95-37.95,53.28-39.09c0.47-1.76,1.71-3.18,3.38-3.91c1.67-0.73,3.56-0.64,5.18,0.2c4.2,2.19,8.04,4.75,11.42,7.61
			c2.53,2.14,2.85,5.93,0.71,8.46c-2.14,2.53-5.93,2.85-8.46,0.71c-1.15-0.97-2.37-1.91-3.66-2.79
			c-5.91,11.12-22.3,32.26-63.94,41.68l-0.39,0.09c-0.86,0.19-1.73,0.39-2.61,0.56C79.43,162.79,79.04,162.83,78.65,162.83z"/>
		<path class="st2" d="M81.49,156.21"/>
		<path class="st0" d="M149.94,236.26c-0.08,0-0.15,0-0.23,0c-3.23-0.12-5.78-2.77-5.78-6l0.01-14.04c0-3.31,2.69-6,6-6c0,0,0,0,0,0
			c3.31,0,6,2.69,6,6v13.74c0,0.25-0.01,0.49-0.02,0.74C155.68,233.85,153.06,236.26,149.94,236.26z"/>
		<path class="st3" d="M84.91,237.33h-0.02c-3.31,0-6-2.69-6-6s2.69-6,6-6s6.01,2.69,6.01,6S88.23,237.33,84.91,237.33z"/>
		<path class="st0" d="M102.14,236.26c-3.13,0-5.75-2.41-5.98-5.56c-0.02-0.25-0.02-0.49-0.02-0.74v-14.35c0-3.31,2.69-6,6-6
			c0,0,0,0,0,0c3.31,0,6,2.68,6,6l0.01,14.65c0,3.23-2.55,5.88-5.78,6C102.29,236.26,102.21,236.26,102.14,236.26z M105.72,230
			l2.41,0.02c0-0.02,0-0.03,0-0.05L105.72,230z"/>
		<path class="st0" d="M119.78,339.83h-12.67c-7.34,0-11.95-2.34-16.85-4.82c-5.77-2.92-12.29-6.24-26.85-7.4H49.52
			c-4.56,0-8.86-1.78-12.1-5.01c-3.25-3.25-5.03-7.55-5.03-12.13v-22.91c0-22.22,11.34-42.41,30.32-54
			c6.52-3.97,13.6-6.7,21.06-8.11c1.59-0.3,3.23,0.05,4.56,0.98c1.33,0.93,2.22,2.35,2.48,3.95c2.52,15.35,15.65,26.49,31.24,26.49
			h8.58c3.31,0,6,2.69,6,6s-2.69,6-6,6h-8.58c-19.3,0-35.88-12.39-41.57-30.25c-4.02,1.24-7.88,2.98-11.52,5.2
			c-15.38,9.39-24.57,25.75-24.57,43.76v22.91c0,1.38,0.53,2.67,1.5,3.64c0.97,0.96,2.26,1.5,3.63,1.5h14.13
			c0.15,0,0.31,0.01,0.46,0.02c17.09,1.33,25.47,5.57,31.58,8.68c4.33,2.2,6.95,3.53,11.42,3.53h12.67c3.31,0,6,2.69,6,6
			S123.09,339.83,119.78,339.83z"/>
		<path class="st0" d="M65.84,244.68c-3.19,0-5.85-2.52-5.99-5.74c-0.67-15.36-0.03-29.94,2.23-50.29
			c1.36-27.42,6.18-49.62,14.31-65.97c0.01-0.02,0.02-0.04,0.03-0.05C87.69,100,105.84,88.04,128.9,88.04
			c11.4,0.09,20.74,1.89,28.6,5.52c3.01,1.39,4.32,4.95,2.93,7.96c-1.39,3.01-4.95,4.32-7.96,2.93c-6.28-2.9-14.01-4.34-23.62-4.42
			c-18.68,0-32.33,9.14-41.7,27.95l0,0c-0.01,0.02-0.02,0.04-0.03,0.05c-7.41,14.9-11.81,35.55-13.07,61.38
			c-0.01,0.12-0.02,0.25-0.03,0.37c-2.2,19.79-2.84,33.88-2.19,48.62c0.15,3.31-2.42,6.11-5.73,6.26
			C66.01,244.67,65.92,244.68,65.84,244.68z"/>
		<path class="st0" d="M188.08,244.71c-1.08,0-2.17-0.29-3.15-0.9c-0.3-0.19-0.62-0.38-0.92-0.55c-5.19-3.02-10.84-5.09-16.77-6.14
			c-3.26-0.58-5.44-3.69-4.87-6.95c0.58-3.26,3.69-5.45,6.95-4.86c7.32,1.29,14.3,3.85,20.75,7.6c0.4,0.24,0.79,0.47,1.16,0.7
			c2.82,1.74,3.69,5.44,1.95,8.26C192.06,243.7,190.1,244.71,188.08,244.71z"/>
		<path class="st0" d="M119.78,339.83h-12.67c-7.34,0-11.95-2.34-16.85-4.82c-5.77-2.92-12.29-6.24-26.85-7.4H49.52
			c-4.56,0-8.86-1.78-12.1-5.01c-3.25-3.25-5.03-7.55-5.03-12.13v-22.91c0-22.22,11.34-42.41,30.32-54
			c6.52-3.97,13.6-6.7,21.06-8.11c0.07-0.01,0.13-0.02,0.2-0.04c3.78-0.72,7.7-1.08,11.64-1.08h5.69c1.07-0.15,2.17-0.02,3.21,0.43
			c2.21,0.95,3.64,3.11,3.64,5.51c0,0.01,0,0.02,0,0.03c0,0.01,0,0.02,0,0.03c0,3.31-2.69,6-6,6h-6.53c-3.25,0-6.47,0.3-9.56,0.9
			c-0.07,0.01-0.15,0.03-0.22,0.04c-5.97,1.15-11.64,3.35-16.87,6.53c-15.38,9.39-24.57,25.75-24.57,43.76v22.91
			c0,1.38,0.53,2.67,1.5,3.64c0.97,0.96,2.26,1.5,3.63,1.5h14.13c0.15,0,0.31,0.01,0.46,0.02c17.09,1.33,25.47,5.57,31.58,8.68
			c4.33,2.2,6.95,3.53,11.42,3.53h12.67c3.31,0,6,2.69,6,6S123.09,339.83,119.78,339.83z"/>
	</g>
	<path class="st4" d="M174.37,117.76"/>
</g>
<path class="st2" d="M119.78,333.83"/>
<path class="st2" d="M312.4,331.83"/>
<path class="st2" d="M298.83,260.86"/>
<path class="st2" d="M264.29,239.66"/>
<path class="st2" d="M131.11,262.86"/>
<path class="st2" d="M187.05,238.08"/>
<g>
	<path class="st3" d="M215.67,235.47h-1.2c-30.46,0-55.24-24.78-55.24-55.24v-24.15c0-3.31,2.69-6,6-6s6,2.69,6,6v24.15
		c0,23.84,19.4,43.24,43.24,43.24h1.2c23.84,0,43.24-19.4,43.24-43.24v-27.02c0-3.31,2.69-6,6-6s6,2.69,6,6v27.02
		C270.92,210.69,246.13,235.47,215.67,235.47z"/>
	<path class="st1" d="M188.07,221.8"/>
	<path class="st1" d="M240.97,238.08"/>
	<path class="st3" d="M235.46,358.59h-41.88c-7.97,0-13.01-2.56-18.35-5.27c-6.44-3.27-13.72-6.96-29.97-8.25h-15.39
		c-10.1,0-18.32-8.22-18.32-18.32V301.4c0-38.22,31.1-69.32,69.32-69.32h1.21V221.8c0-3.31,2.69-6,6-6c3.31,0,6,2.68,6,6l0,16.06
		c0,0.07,0,0.15,0,0.22c0,0.04,0,0.08,0,0.13c0.28,10.48,8.89,18.92,19.44,18.92h2c10.54,0,19.16-8.43,19.44-18.91
		c0-0.05,0-0.09,0-0.14l0.01-15.6c0-3.31,2.69-6,6-6c0,0,0,0,0,0c3.31,0,6,2.69,6,6v9.6h3.22c38.22,0,69.32,31.09,69.32,69.32v25.35
		c0,10.1-8.22,18.32-18.32,18.32h-17.21c-16.15,1.29-23.43,4.98-29.86,8.24c-5.33,2.7-10.37,5.26-18.29,5.28
		C235.71,358.59,235.59,358.59,235.46,358.59z M235.23,346.6c-0.05,0-0.1,0.01-0.14,0.01C235.14,346.61,235.18,346.61,235.23,346.6z
		 M180.86,244.08c-31.6,0-57.32,25.71-57.32,57.32v25.35c0,3.49,2.84,6.32,6.32,6.32h15.63c0.16,0,0.31,0.01,0.46,0.02
		c18.78,1.46,27.98,6.13,34.7,9.54c4.71,2.39,7.83,3.97,12.92,3.97h41.81c0.17-0.01,0.33-0.01,0.49-0.01
		c5.01-0.03,8.12-1.61,12.8-3.98c6.68-3.39,15.83-8.02,34.38-9.5c0.12-0.01,0.24-0.02,0.35-0.03c0.22-0.02,0.44-0.02,0.66-0.01
		h17.11c3.49,0,6.32-2.84,6.32-6.32V301.4c0-31.6-25.71-57.32-57.32-57.32h-3.87c-2.96,14.28-15.65,25.05-30.79,25.05h-2
		c-15.15,0-27.83-10.77-30.79-25.05H180.86z"/>
	<path class="st3" d="M162.09,162.76c-2.52,0-4.84-1.6-5.68-4.07c-0.23-0.67-5.57-16.54-7.63-34.61c-2.96-26,2.3-43.06,15.64-50.7
		c4.89-2.8,12.21-2.6,17.01,0.47c3.35,2.14,6.49,5.05,9.01,7.38c0.89,0.82,1.73,1.6,2.38,2.15c0.81,0.69,1.82,1.05,2.84,1
		c1.65-0.08,6-0.54,10.72-3.07c0.18-0.09,0.36-0.18,0.54-0.26c19.04-7.88,45.6-1.46,46.72-1.18c0.33,0.08,0.65,0.19,0.96,0.33
		c0.87,0.38,21.39,9.6,21.93,31.5c0.06,2.31,0.12,4.58,0.19,6.79c0.63,21.01,1.09,36.19-8.6,42.31c-1.91,1.21-4.33,1.24-6.27,0.08
		c-1.93-1.15-3.06-3.28-2.92-5.53c0.06-1.09,1.09-24.58-21.71-39.87c-6.31,12.26-24.79,36.97-73.9,47.14
		C162.9,162.72,162.49,162.76,162.09,162.76z M172.4,83.41c-0.79,0-1.55,0.13-2.01,0.39c-16.64,9.53-9.74,46.97-4.22,65.9
		c52.77-12.72,62.03-43.13,62.41-44.46c0.5-1.73,1.75-3.17,3.41-3.89c1.66-0.71,3.55-0.66,5.15,0.17
		c14.79,7.71,23.13,18.14,27.83,27.83c-0.04-3.52-0.15-7.11-0.25-10.49c-0.07-2.23-0.14-4.52-0.19-6.86
		c-0.32-12.92-11.84-19.36-14.32-20.6c-3.61-0.8-24.39-5.03-38.46,0.64c-6.51,3.42-12.5,4.18-15.51,4.33
		c-4.08,0.2-8.06-1.17-11.2-3.85c-0.83-0.71-1.76-1.57-2.75-2.48c-2.17-2.01-4.88-4.51-7.33-6.08
		C174.4,83.6,173.37,83.41,172.4,83.41z"/>
	<path class="st2" d="M165.23,156.08"/>
	<path class="st2" d="M264.92,155.73"/>
	<path class="st3" d="M277.22,304.55c-0.04-3.76-0.24-7.28-0.59-10.03c-0.36-2.86-1.21-9.57-7.27-9.57h-0.2c-0.06,0-0.12,0-0.19,0
		c-1.65,0.05-3.11,0.65-5.1,2.27c-4.81-2.67-9.95-2.67-14.76,0c-1.99-1.62-3.45-2.22-5.11-2.27c-0.06,0-0.12,0-0.19,0h-0.2
		c-6.06,0-6.91,6.71-7.27,9.57c-0.35,2.76-0.55,6.3-0.59,10.07c0,0.07,0,0.15,0,0.22v0.4c0,0.16,0,0.33,0,0.49c0,0.04,0,0.07,0,0.11
		v0.8c0,10.49,8.53,19.02,19.02,19.02h3.41c10.49,0,19.02-8.53,19.02-19.02v-1.8C277.23,304.72,277.23,304.63,277.22,304.55z"/>
</g>
<path class="st2" d="M167.81,195.97"/>
<path class="st2" d="M262.33,195.99"/>
<path class="st2" d="M154.3,118.59"/>
<path class="st2" d="M154.99,99.01"/>
<path class="st2" d="M269.81,106.24"/>
</svg>
