<svg id="Filled" height="512" viewBox="0 0 512 512" width="512" xmlns="http://www.w3.org/2000/svg"><g><rect fill="#80daff" height="464" rx="20" width="400" x="88" y="24"/><g fill="#e6f8ff"><rect height="48" rx="10" width="72" x="264" y="408"/><rect height="48" rx="10" width="72" x="264" y="328"/><rect height="48" rx="10" width="72" x="264" y="248"/><rect height="48" rx="10" width="80" x="368" y="248"/><rect height="96" rx="10" width="320" x="128" y="56"/><rect height="32" rx="10" width="120" x="328" y="184"/><rect height="128" rx="10" width="80" x="368" y="328"/></g></g><g><circle cx="160" cy="280" fill="#fcdc8f" r="136"/><circle cx="160" cy="280" fill="#fffbf1" r="96"/></g><rect fill="#fbd373" height="80" rx="20" width="272" x="24" y="408"/><g><path d="m326 464a18.0206 18.0206 0 0 0 18-18v-28a18.0206 18.0206 0 0 0 -18-18h-86.3833a144.0379 144.0379 0 0 0 23.5476-19.5957 17.9812 17.9812 0 0 0 10.8357 3.5957h52a18.0206 18.0206 0 0 0 18-18v-28a18.0206 18.0206 0 0 0 -18-18h-27.6945a143.4164 143.4164 0 0 0 3.6714-16h24.0231a18.0206 18.0206 0 0 0 18-18v-28a18.0206 18.0206 0 0 0 -18-18h-27.6515a144.5862 144.5862 0 0 0 -58.8277-80h198.4792a18.0206 18.0206 0 0 0 18-18v-76a18.0206 18.0206 0 0 0 -18-18h-300a18.0206 18.0206 0 0 0 -18 18v75.6475a144.09 144.09 0 0 0 -103.7549 129.89l15.9727.9258a128.0032 128.0032 0 1 1 172.4297 127.5367h-89.2954a127.7479 127.7479 0 0 1 -83.1343-112.4629l-15.9727.9258a143.6814 143.6814 0 0 0 64.0479 111.5371h-36.293a28.0314 28.0314 0 0 0 -28 28v40a28.0314 28.0314 0 0 0 28 28h232a28.0314 28.0314 0 0 0 28-28v-4zm-190-326v-72a2.0023 2.0023 0 0 1 2-2h300a2.0023 2.0023 0 0 1 2 2v76a2.0023 2.0023 0 0 1 -2 2h-230v.2256a144.4371 144.4371 0 0 0 -72-6.2256zm190 198a2.0023 2.0023 0 0 1 2 2v28a2.0023 2.0023 0 0 1 -2 2h-52c-.031 0-.0616-.001-.0921-.0022a145.0167 145.0167 0 0 0 18.7054-31.9978zm0-80a2.0023 2.0023 0 0 1 2 2v28a2.0023 2.0023 0 0 1 -2 2h-22.2234q.2221-3.98.2234-8a144.3889 144.3889 0 0 0 -2.0006-24zm2 162v28a2.0023 2.0023 0 0 1 -2 2h-22v-20a27.8332 27.8332 0 0 0 -2.7042-12h24.7042a2.0023 2.0023 0 0 1 2 2zm-40 50a12.0134 12.0134 0 0 1 -12 12h-12v-16h-16v16h-32v-32h-16v32h-32v-16h-16v16h-32v-32h-16v32h-32v-16h-16v16h-12a12.0134 12.0134 0 0 1 -12-12v-40a12.0134 12.0134 0 0 1 12-12h12v32h16v-32h32v16h16v-16h32v32h16v-32h32v16h16v-16h32v32h16v-32h12a12.0134 12.0134 0 0 1 12 12z"/><path d="m456 258a18.0206 18.0206 0 0 0 -18-18h-60a18.0206 18.0206 0 0 0 -18 18v28a18.0206 18.0206 0 0 0 18 18h60a18.0206 18.0206 0 0 0 18-18zm-16 28a2.0023 2.0023 0 0 1 -2 2h-60a2.0023 2.0023 0 0 1 -2-2v-28a2.0023 2.0023 0 0 1 2-2h60a2.0023 2.0023 0 0 1 2 2z"/><path d="m480 468a12.0134 12.0134 0 0 1 -12 12h-156v16h156a28.0314 28.0314 0 0 0 28-28v-292h-16z"/><path d="m468 16h-360a28.0314 28.0314 0 0 0 -28 28v92h16v-92a12.0134 12.0134 0 0 1 12-12h360a12.0134 12.0134 0 0 1 12 12v116h16v-116a28.0314 28.0314 0 0 0 -28-28z"/><path d="m456 194a18.0206 18.0206 0 0 0 -18-18h-100a18.0206 18.0206 0 0 0 -18 18v12a18.0206 18.0206 0 0 0 18 18h100a18.0206 18.0206 0 0 0 18-18zm-16 12a2.0023 2.0023 0 0 1 -2 2h-100a2.0023 2.0023 0 0 1 -2-2v-12a2.0023 2.0023 0 0 1 2-2h100a2.0023 2.0023 0 0 1 2 2z"/><path d="m438 320h-60a18.0206 18.0206 0 0 0 -18 18v108a18.0206 18.0206 0 0 0 18 18h60a18.0206 18.0206 0 0 0 18-18v-108a18.0206 18.0206 0 0 0 -18-18zm2 126a2.0023 2.0023 0 0 1 -2 2h-60a2.0023 2.0023 0 0 1 -2-2v-108a2.0023 2.0023 0 0 1 2-2h60a2.0023 2.0023 0 0 1 2 2z"/><path d="m394 136h12a18.0206 18.0206 0 0 0 18-18v-28a18.0206 18.0206 0 0 0 -18-18h-12a18.0206 18.0206 0 0 0 -18 18v28a18.0206 18.0206 0 0 0 18 18zm-2-46a2.0023 2.0023 0 0 1 2-2h12a2.0023 2.0023 0 0 1 2 2v28a2.0023 2.0023 0 0 1 -2 2h-12a2.0023 2.0023 0 0 1 -2-2z"/><path d="m152 80h16v16h-16z"/><path d="m160 384a104 104 0 1 0 -104-104 104.1179 104.1179 0 0 0 104 104zm0-192a88 88 0 1 1 -88 88 88.1 88.1 0 0 1 88-88z"/><path d="m152 344h16v-16h12a28 28 0 0 0 0-56h-40a12 12 0 0 1 0-24h68v-16h-40v-16h-16v16h-12a28 28 0 0 0 0 56h40a12 12 0 0 1 0 24h-68v16h40z"/></g></svg>