<svg id="Capa_1" enable-background="new 0 0 512.002 512.002" height="90" viewBox="0 0 512.002 512.002" width="90" xmlns="http://www.w3.org/2000/svg"><g><g clip-rule="evenodd" fill-rule="evenodd"><path d="m347.861 164.14c7.81 7.809 20.472 7.809 28.281 0l15.859-15.859 15.859 15.859c7.809 7.809 20.472 7.809 28.281 0s7.809-20.472 0-28.281l-15.858-15.859 15.859-15.86c7.809-7.809 7.809-20.472 0-28.281s-20.472-7.809-28.281 0l-15.859 15.859-15.859-15.859c-7.81-7.809-20.472-7.809-28.281 0-7.809 7.81-7.809 20.472 0 28.281l15.86 15.86-15.86 15.859c-7.81 7.81-7.81 20.472-.001 28.281z" fill="#cbe558"/><path d="m376.142 164.14c-7.81 7.809-20.472 7.809-28.281 0s-7.809-20.472 0-28.281l15.86-15.859-15.86-15.86c-7.809-7.809-7.809-20.472 0-28.281 7.81-7.809 20.472-7.809 28.281 0l15.859 15.859 15.859-15.859c7.809-7.809 20.472-7.809 28.281 0 7.809 7.81 7.809 20.472 0 28.281l-15.858 15.86 15.859 15.859c7.809 7.809 7.809 20.472 0 28.281s-20.472 7.809-28.281 0l-15.859-15.859zm-41.567 49.693c16.717 10.252 36.38 16.167 57.427 16.167 60.751 0 110-49.249 110-110s-49.249-110-110-110c-34.159 0-64.682 15.57-84.858 40.001-15.706 19.019-25.142 43.407-25.142 69.999 0 21.044 5.912 40.706 16.163 57.42-3.169 11.812-6.339 23.624-9.507 35.447-1.723 6.465 4.298 12.216 10.585 10.442 11.778-3.156 23.555-6.316 35.332-9.476z" fill="#6d91ac"/><path d="m298.164 177.42c-10.25-16.714-16.163-36.376-16.163-57.42 0-26.592 9.436-50.98 25.143-69.999h-277.144c-11 0-20 9-20 20v412.001c0 11 9 20 20 20h342.002c11 0 20-9 20-20v-252.002c-21.047 0-40.71-5.915-57.426-16.167-11.777 3.16-23.555 6.32-35.333 9.476-6.287 1.774-12.307-3.977-10.585-10.442 3.168-11.823 6.337-23.635 9.506-35.447zm-148.162 12.583c44.183 0 80 35.817 80 80h-80-80c0-44.183 35.817-80 80-80zm0-80c22.091 0 40 17.909 40 40s-17.909 40-40 40-40-17.909-40-40 17.909-40 40-40z" fill="#fff"/><circle cx="150.002" cy="150.003" fill="#ff5d7d" r="40"/><path d="m230.002 270.003c0-44.183-35.817-80-80-80s-80 35.817-80 80h80z" fill="#ff5d7d"/><path d="m30 502.002h342.002c11 0 20-9 20-20v-26.401h-382.002v26.401c0 11 9 20 20 20z" fill="#cbe558"/></g><g><path d="m512.001 120c0-66.168-53.832-120-120-120-35.463 0-67.383 15.463-89.37 40.001h-272.631c-16.542 0-30 13.458-30 30v412.001c0 16.542 13.458 30 29.999 30h342.002c16.542 0 30-13.458 30-30v-242.415c61.508-5.098 110-56.786 110-119.587zm-482.001-59.999h258.106c-10.239 17.661-16.105 38.158-16.105 59.999 0 20.702 5.319 40.964 15.419 58.875-2.809 10.465-5.616 20.932-8.426 31.417-1.737 6.52.095 13.24 4.899 17.976 4.731 4.663 11.616 6.455 17.986 4.688 10.414-2.791 20.827-5.584 31.24-8.378 15.018 8.47 31.686 13.577 48.881 15.007v206.017h-362v-375.601c0-5.514 4.486-10 10-10zm342.001 432.001h-342.001c-5.514 0-9.999-4.486-9.999-10v-16.4h362.001v16.4c-.001 5.514-4.487 10-10.001 10zm20-272.002c-18.478 0-36.527-5.08-52.197-14.691-1.588-.974-3.399-1.476-5.229-1.476-.867 0-1.738.113-2.592.342-11.006 2.953-22.011 5.905-33.017 8.855 2.951-11.013 5.902-22.015 8.855-33.019.712-2.652.302-5.479-1.134-7.82-9.608-15.666-14.688-33.713-14.688-52.191 0-55.14 44.859-100 100-100s100 44.86 100 100-44.857 100-99.998 100z"/><path d="m452 90c0-8.013-3.12-15.546-8.786-21.211-5.665-5.666-13.198-8.787-21.212-8.787-8.013 0-15.546 3.121-21.212 8.787l-8.787 8.788-8.789-8.789c-11.697-11.696-30.729-11.696-42.424 0s-11.695 30.727 0 42.423l8.789 8.789-8.789 8.788c-11.695 11.696-11.695 30.727 0 42.423 11.695 11.695 30.727 11.695 42.424 0l8.789-8.788 8.787 8.788c5.666 5.666 13.199 8.786 21.212 8.786 8.014 0 15.547-3.121 21.212-8.786s8.786-13.198 8.786-21.211-3.12-15.546-8.786-21.211l-8.789-8.789 8.788-8.789c5.666-5.665 8.787-13.198 8.787-21.211zm-38.788 37.071 15.858 15.859c1.889 1.888 2.929 4.399 2.929 7.069 0 2.671-1.04 5.181-2.929 7.07-1.888 1.888-4.398 2.928-7.069 2.928s-5.182-1.04-7.069-2.928l-15.858-15.859c-1.953-1.953-4.512-2.929-7.071-2.929s-5.118.976-7.07 2.929l-15.861 15.859c-1.888 1.889-4.398 2.928-7.069 2.928s-5.182-1.04-7.069-2.928c-3.897-3.898-3.897-10.241-.001-14.139l15.86-15.859c1.876-1.875 2.93-4.419 2.93-7.071s-1.054-5.196-2.929-7.071l-15.86-15.859c-3.897-3.898-3.897-10.241 0-14.139 1.888-1.889 4.398-2.928 7.069-2.928s5.182 1.04 7.069 2.928l15.86 15.859c1.876 1.875 4.419 2.929 7.071 2.929s5.196-1.054 7.071-2.929l15.858-15.859c1.888-1.889 4.398-2.928 7.069-2.928s5.182 1.04 7.069 2.928c1.889 1.887 2.93 4.398 2.93 7.069s-1.04 5.181-2.929 7.07l-15.858 15.86c-3.906 3.904-3.906 10.236-.001 14.141z"/><path d="m70.002 280.003h160c5.522 0 10-4.477 10-10 0-37.614-23.194-69.912-56.03-83.344 9.854-9.138 16.03-22.189 16.03-36.656 0-27.57-22.43-50-50-50s-50 22.43-50 50c0 14.467 6.176 27.518 16.03 36.656-32.836 13.432-56.03 45.731-56.03 83.344 0 5.523 4.478 10 10 10zm80-160c16.542 0 30 13.458 30 30s-13.458 30-30 30-30-13.458-30-30 13.458-30 30-30zm0 80c35.203 0 64.421 26.122 69.288 60h-138.576c4.868-33.878 34.085-60 69.288-60z"/><path d="m70.002 326.403h261.998c5.522 0 10-4.477 10-10s-4.478-10-10-10h-261.998c-5.522 0-10 4.477-10 10s4.478 10 10 10z"/><path d="m332 352.803h-216.995c-5.522 0-10 4.477-10 10s4.478 10 10 10h216.995c5.522 0 10-4.477 10-10s-4.478-10-10-10z"/><path d="m70.002 419.202h261.998c5.522 0 10-4.477 10-10s-4.478-10-10-10h-261.998c-5.522 0-10 4.477-10 10s4.478 10 10 10z"/><path d="m70.002 352.803c-5.522 0-9.996 4.477-9.996 10s4.48 10 10.003 10 10-4.477 10-10-4.478-10-10-10z"/></g></g></svg>