<svg id="Capa_1" enable-background="new 0 0 512 512" height="24" viewBox="0 0 512 512" width="24" xmlns="http://www.w3.org/2000/svg"><g><g id="XMLID_345_"><g id="XMLID_799_"><path id="XMLID_549_" d="m380.315 310.42h-248.63v170.868h186.472l62.158-62.157z" fill="#f8e868"/><path id="XMLID_1057_" d="m151.685 330.42h228.63v-20h-248.63v170.868h20z" fill="#dec80e"/><path id="XMLID_655_" d="m131.685 30.712h248.63v155.393h-248.63z" fill="#f8e868"/><path id="XMLID_1014_" d="m151.685 50.712h228.63v-20h-248.63v155.393h20z" fill="#dec80e"/><path id="XMLID_547_" d="m85.067 76.985h46.963v109.121h-46.963z" fill="#e5ecf5"/><path id="XMLID_1013_" d="m85.067 76.985h20v109.121h-20z" fill="#cad8eb"/><path id="XMLID_546_" d="m380.315 76.985h46.963v109.121h-46.963z" fill="#e5ecf5"/><path id="XMLID_724_" d="m380.315 419.131-62.158 62.157v-62.157z" fill="#e8ab4c"/><path id="XMLID_348_" d="m473.421 186.105h-434.842l-31.079 31.079v139.79l31.079 31.078h93.106v-77.632h248.63v77.632h93.106l31.079-31.078v-139.79z" fill="#6e91ef"/><path id="XMLID_933_" d="m27.5 225.468 19.363-19.363h446.559l-20.001-20h-434.842l-31.079 31.079v139.79l20 20z" fill="#3d6dea"/></g><g id="XMLID_797_"><path id="XMLID_359_" d="" fill="none" stroke="#000" stroke-width="15"/><path id="XMLID_357_" d="" fill="none" stroke="#000" stroke-width="15"/><g fill="#fff"><path id="XMLID_349_" d="m361 218.562h15v15h-15z"/><path id="XMLID_352_" d="m391 218.562h15v15h-15z"/><path id="XMLID_757_" d="m421 218.562h15v15h-15z"/></g><g id="XMLID_1919_"><path id="XMLID_1927_" d="m171.062 338.438h169.875v15h-169.875z"/><path id="XMLID_1928_" d="m202 372.5h138.938v15h-138.938z"/><path id="XMLID_1929_" d="m172 372.5h15v15h-15z"/></g></g></g><g id="XMLID_40_"><g id="XMLID_43_"><path id="XMLID_74_" d="m361 218.562h15v15h-15z"/><path id="XMLID_68_" d="m391 218.562h15v15h-15z"/><path id="XMLID_66_" d="m421 218.562h15v15h-15z"/><g id="XMLID_56_"><path id="XMLID_1922_" d="m476.528 178.605h-41.75v-109.121h-46.963v-46.272h-203.065v15h188.065v31.272 109.121h-233.63v-109.121-31.272h30.689v-15h-45.689v46.272h-46.618v109.121h-42.095l-35.472 35.472v146.003l35.472 35.472h88.713v93.236h197.079l66.551-66.551v-26.686h31.618v-15h-31.618v-62.631h39.118v-15h-39.118-263.63-39.118v15h39.118v62.632h-82.5l-26.685-26.685v-82.63h482v82.63l-26.685 26.685h-35.882v15h42.095l35.472-35.472v-146.003zm-150.871 284.577v-36.551h36.551zm47.158-145.262v77.632 16.079h-62.158v62.157h-171.472v-78.236-77.632zm15-233.436h31.963v94.121h-31.963zm-295.248 0h31.618v94.121h-31.618zm-77.567 171.753v-35.947l26.685-26.685h428.63l26.685 26.685v35.947z"/></g></g></g></g></svg>