<svg id="Capa_1" enable-background="new 0 0 512 512" height="100" viewBox="0 0 512 512" width="100" xmlns="http://www.w3.org/2000/svg" xmlns:xlink="http://www.w3.org/1999/xlink"><linearGradient id="SVGID_1_" gradientUnits="userSpaceOnUse" x1="142.695" x2="483.152" y1="378.735" y2="38.277"><stop offset="0" stop-color="#fff3ee" stop-opacity="0"/><stop offset=".2938" stop-color="#ffeade" stop-opacity=".373"/><stop offset=".7874" stop-color="#ffd6bb"/></linearGradient><g><g><path d="m332.949 41.432c-97.53 113.013-309.476-10.595-316.362 175.275-3.867 104.373 121.584 55.246 165.606 137.647 23.897 44.73 51.823 135.936 98.185 151.902 100.806 34.714 177.807-94.839 92.577-202.577-16.644-21.04-14.321-45.002 3.756-66.084 28.335-33.047 72.817-48.519 97.081-83.61 72.103-104.28-51.061-216.588-140.843-112.553z" fill="url(#SVGID_1_)"/></g><g><g><path d="m449.686 357.26h-25.417c11.445-22.455 17.902-47.878 17.902-74.81 0-28.912-7.446-56.081-20.513-79.71h24.124c5.523 0 10-4.477 10-10v-92.775c0-5.523-4.477-10-10-10h-139.737c-5.523 0-10 4.477-10 10v18.594c-6.185-.703-12.47-1.078-18.843-1.078-91.11 0-164.969 73.859-164.969 164.969 0 .076.003.15.003.226h-49.922c-5.523 0-10 4.477-10 10v92.775c0 5.523 4.477 10 10 10h94.71c30.089 31.987 72.797 51.968 120.177 51.968 7.719 0 15.31-.542 22.747-1.568v14.184c0 5.523 4.477 10 10 10h139.737c5.523 0 10-4.477 10-10v-92.775c.001-5.523-4.476-10-9.999-10z" fill="#00c" opacity=".1"/><path d="m277.2 343.85c-14.62 0-28.8 1.33-42.29 3.83 1.35 6.88 2.85 13.4 4.49 19.53 11.74 5.25 24.56 8.01 37.8 8.01s26.06-2.76 37.8-8.01c1.64-6.13 3.14-12.65 4.49-19.53-13.49-2.5-27.67-3.83-42.29-3.83z" fill="#6c6cff"/><path d="m191.32 280.6v29.19c0 1.45-.61 2.76-1.6 3.67-.89.82-2.09 1.33-3.4 1.33h-107.66c-2.76 0-5-2.23-5-5v-29.19c0-2.76 2.24-5 5-5h107.66c2.77 0 5 2.24 5 5z" fill="#9494ff"/><g><g><circle cx="277.202" cy="258.45" fill="#6c6cff" r="164.969"/><path d="m432.52 202.74h-126.48c-5.52 0-10-4.48-10-10v-92.77c0-1.93.54-3.72 1.48-5.24 62.6 7.68 114.35 50.44 135 108.01z" fill="#4d4dff"/><path d="m392.332 140.31c-29.72 20.26-70.34 32.74-115.13 32.74s-85.41-12.48-115.13-32.74c29.72-28.98 70.34-46.83 115.13-46.83s85.41 17.85 115.13 46.83z" fill="#4d4dff"/><ellipse cx="277.202" cy="258.45" fill="#8383ff" rx="115.33" ry="164.969"/><path d="m385.78 202.74h-79.74c-5.52 0-10-4.48-10-10v-92.77c0-1.46.31-2.84.87-4.08 41.28 10.16 75.05 51.71 88.87 106.85z" fill="#6c6cff"/><ellipse cx="277.202" cy="258.45" fill="#9494ff" rx="50.274" ry="164.969"/><path d="m366.792 154.57c-25.79 11.69-56.56 18.48-89.59 18.48s-63.8-6.79-89.59-18.48c21.14-37.27 53.42-61.09 89.59-61.09s68.45 23.82 89.59 61.09z" fill="#6c6cff"/><g><path d="m319.492 169.22c-13.49 2.5-27.67 3.83-42.29 3.83s-28.8-1.33-42.29-3.83c8.94-45.57 24.54-75.74 42.29-75.74s33.35 30.17 42.29 75.74z" fill="#8383ff"/></g><g><path d="m442.17 258.45c0 91.11-73.859 164.969-164.969 164.969s-164.968-73.859-164.968-164.969z" fill="#4d4dff"/><g><path d="m392.332 376.59c-29.72 28.98-70.34 46.83-115.13 46.83s-85.41-17.85-115.13-46.83c29.72-20.26 70.34-32.74 115.13-32.74s85.41 12.48 115.13 32.74z" fill="#6c6cff"/></g><path d="m392.531 258.45c0 91.11-51.635 164.969-115.33 164.969s-115.33-73.859-115.33-164.969z" fill="#6c6cff"/><path d="m327.476 258.45c0 91.11-22.508 164.969-50.274 164.969s-50.274-73.859-50.274-164.969z" fill="#8383ff"/><g><path d="m366.792 362.33c-21.14 37.27-53.42 61.09-89.59 61.09s-68.45-23.82-89.59-61.09c25.79-11.69 56.56-18.48 89.59-18.48s63.8 6.79 89.59 18.48z" fill="#8383ff"/></g></g><path d="m319.492 347.68c-8.94 45.57-24.54 75.74-42.29 75.74s-33.35-30.17-42.29-75.74c13.49-2.5 27.67-3.83 42.29-3.83s28.8 1.33 42.29 3.83z" fill="#9494ff"/></g><g><g><g><path d="m342.8 216.852c-17.522-17.522-40.818-27.172-65.598-27.172s-48.076 9.65-65.598 27.172-27.172 40.818-27.172 65.598 9.65 48.077 27.172 65.598 40.818 27.172 65.598 27.172 48.076-9.65 65.598-27.172c17.52-17.521 27.172-40.82 27.172-65.598 0-24.78-9.65-48.076-27.172-65.598zm-105.63 25.567c10.693-10.693 24.91-16.582 40.032-16.582 8.878 0 17.438 2.044 25.162 5.885l-75.891 75.891c-3.84-7.724-5.885-16.284-5.885-25.162 0-15.123 5.889-29.339 16.582-40.032zm80.063 80.063c-10.693 10.693-24.909 16.582-40.032 16.582-8.878 0-17.438-2.044-25.162-5.885l75.891-75.891c3.84 7.724 5.885 16.284 5.885 25.162 0 15.122-5.889 29.339-16.582 40.032z" fill="#6c6cff"/><g><path d="m366.85 258.45h-38.36c3.48 7.41 5.32 15.56 5.32 24 0 15.12-5.88 29.34-16.58 40.03-4.532 4.532-9.704 8.191-15.305 10.915v38.484c15.308-4.206 29.347-12.3 40.875-23.828 17.52-17.52 27.17-40.82 27.17-65.6 0-8.221-1.06-16.271-3.12-24.001z" fill="#4d4dff"/></g><path d="m319.49 347.68c-1.35 6.88-2.85 13.4-4.49 19.53-11.74 5.25-24.56 8.01-37.8 8.01s-26.06-2.76-37.8-8.01c-1.64-6.13-3.14-12.65-4.49-19.53 13.49-2.5 27.67-3.83 42.29-3.83s28.8 1.33 42.29 3.83z" fill="#8383ff"/><path d="m459.69 343.26v92.77c0 5.53-4.48 10-10 10h-139.74c-5.52 0-10-4.47-10-10v-92.77c0-5.52 4.48-10 10-10h139.74c5.52 0 10 4.48 10 10z" fill="#fff"/><path d="m309.95 333.26c-5.52 0-10 4.48-10 10v29.17c16.08-4.04 30.83-12.36 42.85-24.38 4.56-4.56 8.59-9.52 12.05-14.79z" fill="#d9d9ff"/></g><path d="m438.96 355.19v29.19c0 2.76-2.24 5-5 5h-107.67c-2.76 0-5-2.24-5-5v-29.19c0-2.77 2.24-5 5-5h107.67c2.76 0 5 2.23 5 5z" fill="#9494ff"/><path d="m340.58 350.19c-5.88 5.52-12.36 10.18-19.29 13.93v-8.93c0-2.77 2.24-5 5-5z" fill="#8383ff"/><g><path d="m431.959 411.34h-53.028c-2.761 0-5-2.239-5-5 0-2.761 2.239-5 5-5h53.028c2.761 0 5 2.239 5 5 0 2.762-2.239 5-5 5z" fill="#ffab66"/><g><path d="m431.959 429.079h-53.028c-2.761 0-5-2.239-5-5 0-2.761 2.239-5 5-5h53.028c2.761 0 5 2.239 5 5 0 2.761-2.239 5-5 5z" fill="#ffab66"/></g></g><g><circle cx="424.164" cy="363.777" fill="#fff" r="5"/><g><circle cx="406.461" cy="363.777" fill="#fff" r="5"/></g><circle cx="388.759" cy="363.777" fill="#fff" r="5"/></g></g><path d="m362.001 400.852c0-9.161-7.453-16.613-16.613-16.613s-16.613 7.453-16.613 16.613c0 4.518 1.818 8.615 4.755 11.613-2.936 2.998-4.755 7.095-4.755 11.613 0 2.761 2.238 5 5 5s5-2.239 5-5c0-3.646 2.967-6.613 6.613-6.613s6.613 2.967 6.613 6.613c0 2.761 2.238 5 5 5s5-2.239 5-5c0-4.518-1.818-8.615-4.755-11.613 2.937-2.997 4.755-7.095 4.755-11.613zm-16.613-6.613c3.646 0 6.613 2.967 6.613 6.613s-2.967 6.613-6.613 6.613-6.613-2.967-6.613-6.613 2.966-6.613 6.613-6.613z" fill="#ff9d33"/></g><g><g><g><path d="m445.782 178.74h-139.737c-5.523 0-10-4.477-10-10v-92.775c0-5.523 4.477-10 10-10h139.737c5.523 0 10 4.477 10 10v92.775c0 5.523-4.477 10-10 10z" fill="#fff"/></g><path d="m430.055 122.083h-107.666c-2.761 0-5-2.239-5-5v-29.193c0-2.761 2.239-5 5-5h107.666c2.761 0 5 2.239 5 5v29.192c0 2.762-2.239 5.001-5 5.001z" fill="#9494ff"/><g><path d="m428.055 144.046h-53.028c-2.761 0-5-2.239-5-5 0-2.761 2.239-5 5-5h53.028c2.761 0 5 2.239 5 5 0 2.761-2.239 5-5 5z" fill="#ffab66"/><g><path d="m428.055 161.784h-53.028c-2.761 0-5-2.239-5-5 0-2.761 2.239-5 5-5h53.028c2.761 0 5 2.239 5 5 0 2.761-2.239 5-5 5z" fill="#ffab66"/></g></g><g><circle cx="420.26" cy="96.482" fill="#fff" r="5"/><g><circle cx="402.558" cy="96.482" fill="#fff" r="5"/></g><circle cx="384.855" cy="96.482" fill="#fff" r="5"/></g></g><path d="m358.097 133.557c0-9.161-7.453-16.613-16.613-16.613s-16.613 7.453-16.613 16.613c0 4.518 1.818 8.615 4.755 11.613-2.936 2.998-4.755 7.095-4.755 11.613 0 2.761 2.238 5 5 5s5-2.239 5-5c0-3.646 2.967-6.613 6.613-6.613s6.613 2.967 6.613 6.613c0 2.761 2.238 5 5 5s5-2.239 5-5c0-4.518-1.818-8.615-4.755-11.613 2.937-2.997 4.755-7.095 4.755-11.613zm-16.613-6.613c3.646 0 6.613 2.967 6.613 6.613s-2.967 6.613-6.613 6.613-6.613-2.967-6.613-6.613 2.967-6.613 6.613-6.613z" fill="#ff6c6c"/></g><g><g><g><path d="m212.05 268.68v92.77c0 5.52-4.48 10-10 10h-139.74c-5.52 0-10-4.48-10-10v-92.77c0-5.53 4.48-10 10-10h139.74c5.52 0 10 4.47 10 10z" fill="#fff"/><path d="m202.05 258.68h-14.56c-2.02 7.66-3.06 15.64-3.06 23.77 0 24.78 9.65 48.08 27.17 65.6.15.15.3.3.45.44v-79.81c0-5.53-4.48-10-10-10z" fill="#d9d9ff"/></g><path d="m186.324 314.794h-107.666c-2.761 0-5-2.239-5-5v-29.192c0-2.761 2.239-5 5-5h107.666c2.761 0 5 2.239 5 5v29.192c0 2.761-2.238 5-5 5z" fill="#9494ff"/><path d="m191.32 280.6v29.19c0 1.45-.61 2.76-1.6 3.67-3.48-9.82-5.29-20.28-5.29-31.01 0-2.3.08-4.58.25-6.85h1.64c2.77 0 5 2.24 5 5z" fill="#6c6cff"/><g><path d="m184.324 336.757h-53.028c-2.761 0-5-2.239-5-5 0-2.761 2.239-5 5-5h53.028c2.761 0 5 2.239 5 5 0 2.761-2.238 5-5 5z" fill="#ffab66"/><g><path d="m184.324 354.495h-53.028c-2.761 0-5-2.239-5-5 0-2.761 2.239-5 5-5h53.028c2.761 0 5 2.239 5 5 0 2.761-2.238 5-5 5z" fill="#ffab66"/></g></g><g><circle cx="176.53" cy="289.193" fill="#fff" r="5"/><g><circle cx="158.827" cy="289.193" fill="#fff" r="5"/></g><circle cx="141.125" cy="289.193" fill="#fff" r="5"/></g></g><path d="m114.367 326.268c0-9.161-7.453-16.613-16.613-16.613s-16.613 7.453-16.613 16.613c0 4.518 1.818 8.615 4.755 11.613-2.936 2.998-4.755 7.095-4.755 11.613 0 2.761 2.238 5 5 5s5-2.239 5-5c0-3.646 2.967-6.613 6.613-6.613s6.613 2.967 6.613 6.613c0 2.761 2.238 5 5 5s5-2.239 5-5c0-4.518-1.818-8.615-4.755-11.613 2.937-2.997 4.755-7.095 4.755-11.613zm-16.614-6.613c3.646 0 6.613 2.967 6.613 6.613s-2.967 6.613-6.613 6.613-6.613-2.967-6.613-6.613 2.967-6.613 6.613-6.613z" fill="#4d4dff"/></g></g></g><path d="m67.1 219.729c-2.761 0-5-2.239-5-5 0-3.033-2.467-5.5-5.5-5.5-2.761 0-5-2.239-5-5s2.239-5 5-5c3.033 0 5.5-2.467 5.5-5.5 0-2.761 2.239-5 5-5s5 2.239 5 5c0 3.033 2.467 5.5 5.5 5.5 2.761 0 5 2.239 5 5s-2.239 5-5 5c-3.033 0-5.5 2.467-5.5 5.5 0 2.762-2.239 5-5 5z" fill="#ff6c6c"/><path d="m256 65.162c-2.761 0-5-2.239-5-5 0-3.033-2.467-5.5-5.5-5.5-2.761 0-5-2.239-5-5s2.239-5 5-5c3.033 0 5.5-2.467 5.5-5.5 0-2.761 2.239-5 5-5s5 2.239 5 5c0 3.033 2.467 5.5 5.5 5.5 2.761 0 5 2.239 5 5s-2.239 5-5 5c-3.033 0-5.5 2.467-5.5 5.5 0 2.761-2.239 5-5 5z" fill="#6c6cff"/><g fill="#ff9d33"><path d="m469.25 224.549c-2.761 0-5-2.239-5-5 0-3.033-2.467-5.5-5.5-5.5-2.761 0-5-2.239-5-5s2.239-5 5-5c3.033 0 5.5-2.467 5.5-5.5 0-2.761 2.239-5 5-5s5 2.239 5 5c0 3.033 2.467 5.5 5.5 5.5 2.761 0 5 2.239 5 5s-2.239 5-5 5c-3.032 0-5.5 2.467-5.5 5.5 0 2.761-2.238 5-5 5z"/><path d="m86.14 158.735c-1.28 0-2.559-.488-3.536-1.464-1.953-1.953-1.953-5.119 0-7.071l10-10c1.953-1.952 5.118-1.952 7.071 0 1.953 1.953 1.953 5.119 0 7.071l-10 10c-.976.976-2.255 1.464-3.535 1.464z"/><path d="m271 480.035c-1.28 0-2.559-.488-3.536-1.464-1.953-1.953-1.953-5.119 0-7.071l10-10c1.953-1.952 5.118-1.952 7.071 0 1.953 1.953 1.953 5.119 0 7.071l-10 10c-.976.975-2.255 1.464-3.535 1.464z"/></g><path d="m341.312 188.34c-17.124-17.124-39.892-26.556-64.111-26.556-24.218 0-46.986 9.431-64.111 26.556s-26.556 39.892-26.556 64.111 9.431 46.986 26.556 64.111 39.892 26.556 64.111 26.556c24.218 0 46.986-9.431 64.111-26.556 17.123-17.124 26.556-39.894 26.556-64.111 0-24.219-9.431-46.987-26.556-64.111zm-103.234 24.986c10.451-10.451 24.345-16.206 39.124-16.206 8.677 0 17.042 1.998 24.591 5.751l-74.17 74.169c-3.753-7.549-5.751-15.914-5.751-24.591 0-14.778 5.755-28.672 16.206-39.123zm78.247 78.248c-10.451 10.451-24.345 16.206-39.124 16.206-8.677 0-17.042-1.998-24.591-5.751l74.17-74.169c3.753 7.549 5.751 15.914 5.751 24.591 0 14.778-5.755 28.672-16.206 39.123z" fill="#ff4d4d"/></g><g fill="#00c"><path d="m449.686 328.26h-17.526c9.638-21.309 15.01-44.943 15.01-69.81 0-26.792-6.243-52.148-17.332-74.71h15.944c8.271 0 15-6.729 15-15v-92.775c0-8.271-6.729-15-15-15h-26.526c-2.761 0-5 2.239-5 5s2.239 5 5 5h26.526c2.757 0 5 2.243 5 5v92.775c0 2.757-2.243 5-5 5h-114.171c-9.312-6.466-19.637-11.181-30.566-13.973v-83.802c0-2.757 2.243-5 5-5h84.401c2.761 0 5-2.239 5-5s-2.239-5-5-5h-84.401c-8.271 0-15 6.729-15 15v13.09c-4.567-.374-9.182-.574-13.843-.574-81.994 0-152.284 58.437-167.135 138.95-.501 2.716 1.294 5.323 4.01 5.824 2.714.503 5.323-1.294 5.824-4.01 13.976-75.77 80.131-130.764 157.301-130.764 4.665 0 9.28.212 13.843.608v57.463c1.67.314 3.337.983 4.94 2.064-6.12-1.212-12.404-1.833-18.783-1.833-25.553 0-49.577 9.951-67.646 28.021-18.069 18.069-28.02 42.092-28.02 67.646 0 .409.01.817.015 1.226h-119.237c-8.271 0-15 6.729-15 15v92.775c0 8.271 6.729 15 15 15h92.572c32.324 33.519 75.693 51.968 122.315 51.968 5.994 0 11.912-.328 17.747-.939v8.554c0 8.271 6.729 15 15 15h139.737c8.271 0 15-6.729 15-15v-92.774c.001-8.271-6.728-15-14.999-15zm-31.067-144.52c11.836 22.313 18.551 47.741 18.551 74.71 0 25.015-5.78 48.702-16.063 69.81h-85.537c3.237-2.503 6.337-5.224 9.277-8.164 18.069-18.07 28.02-42.094 28.02-67.646 0-25.554-9.951-49.577-28.02-67.646-.36-.36-.726-.711-1.09-1.064zm-201.993 8.135c16.181-16.181 37.693-25.092 60.575-25.092s44.394 8.911 60.575 25.092c16.181 16.18 25.091 37.692 25.091 60.575 0 22.881-8.911 44.394-25.091 60.575-16.181 16.181-37.693 25.092-60.575 25.092s-44.395-8.911-60.575-25.092c-16.181-16.18-25.091-37.692-25.091-60.575s8.911-44.395 25.091-60.575zm-159.312 169.576v-92.775c0-2.757 2.243-5 5-5h119.874c2.337 20.122 10.944 38.825 24.863 53.812v43.963c0 2.757-2.243 5-5 5h-139.737c-2.757 0-5-2.243-5-5zm219.888 56.968c-40.546 0-78.479-14.826-108.013-41.968h32.862c8.271 0 15-6.729 15-15v-34.603c16.975 13.777 37.986 21.268 60.15 21.268 6.02 0 11.954-.559 17.747-1.64v70.942c-5.828.65-11.747 1.001-17.746 1.001zm177.484 17.616c0 2.757-2.243 5-5 5h-139.737c-2.757 0-5-2.243-5-5v-91.985c5.038-1.519 9.932-3.457 14.643-5.79h130.094c2.757 0 5 2.243 5 5z"/><path d="m226.817 281.976c.269.044.539.065.807.065 1.315 0 2.59-.52 3.536-1.464l74.169-74.169c1.138-1.138 1.659-2.754 1.399-4.342s-1.268-2.954-2.708-3.67c-8.374-4.164-17.396-6.274-26.817-6.274-16.114 0-31.265 6.275-42.66 17.67s-17.67 26.545-17.67 42.659c0 9.421 2.111 18.444 6.274 26.817.716 1.44 2.082 2.448 3.67 2.708zm14.796-65.114c9.506-9.506 22.145-14.742 35.588-14.742 5.439 0 10.716.842 15.763 2.509l-63.583 63.583c-1.667-5.046-2.509-10.324-2.509-15.763 0-13.442 5.235-26.081 14.741-35.587z"/><path d="m247.676 302.835c.26 1.588 1.268 2.954 2.708 3.67 8.373 4.164 17.396 6.274 26.817 6.274 16.114 0 31.264-6.275 42.659-17.67 11.394-11.394 17.67-26.545 17.67-42.659 0-9.421-2.111-18.444-6.274-26.817-.716-1.441-2.083-2.449-3.67-2.708-1.59-.261-3.204.261-4.342 1.399l-74.169 74.169c-1.138 1.138-1.658 2.754-1.399 4.342zm77.346-66.147c1.667 5.046 2.509 10.324 2.509 15.762 0 13.444-5.235 26.083-14.741 35.588-9.506 9.506-22.145 14.742-35.588 14.742-5.439 0-10.716-.842-15.763-2.509z"/></g></g></svg>