<svg height="512pt" viewBox="0 0 512 512" width="512pt" xmlns="http://www.w3.org/2000/svg"><g fill="#6dccf2"><path d="m255.996094 152.3125c-65.949219 0-127.871094 25.617188-174.390625 72.136719l23.894531 23.894531c41.488281-41.488281 95.988281-62.242188 150.496094-62.242188 54.5 0 109.007812 20.753907 150.5 62.242188l23.894531-23.894531c-46.507813-46.519531-108.445313-72.136719-174.394531-72.136719zm0 0"/><path d="m255.996094 213.738281c-49.519532 0-96.019532 19.234375-130.945313 54.160157l23.894531 23.90625h.011719c28.542969-28.546876 66.550781-44.265626 107.039063-44.265626 40.488281 0 78.507812 15.71875 107.042968 44.265626l23.902344-23.90625c-34.921875-34.925782-81.433594-54.160157-130.945312-54.160157zm0 0"/><path d="m168.507812 311.355469 23.894532 23.894531c17.535156-17.535156 40.558594-26.300781 63.59375-26.300781 23.023437 0 46.058594 8.777343 63.59375 26.300781l23.894531-23.894531c-48.238281-48.242188-126.726563-48.242188-174.976563 0zm0 0"/><path d="m300.101562 354.742188-44.105468 44.101562-44.101563-44.101562c11.285157-11.277344 26.875-18.261719 44.101563-18.261719 17.226562 0 32.816406 6.984375 44.105468 18.261719zm0 0"/></g><path d="m256 7.605469c-137.1875 0-248.394531 111.207031-248.394531 248.394531s111.207031 248.394531 248.394531 248.394531 248.394531-111.207031 248.394531-248.394531-111.207031-248.394531-248.394531-248.394531zm-203.714844 248.394531c0-69.039062 34.351563-130.050781 86.890625-166.894531l194.460938 355.277343c-23.925781 9.871094-50.144531 15.332032-77.636719 15.332032-112.507812 0-203.714844-91.207032-203.714844-203.714844zm320.53125 166.898438-194.460937-355.277344c23.929687-9.875 50.148437-15.335938 77.644531-15.335938 112.507812 0 203.703125 91.207032 203.703125 203.714844 0 69.042969-34.347656 130.054688-86.886719 166.898438zm0 0" fill="#ff5a73"/><path d="m437.019531 74.980469c-48.351562-48.351563-112.640625-74.980469-181.019531-74.980469s-132.667969 26.628906-181.019531 74.980469c-48.351563 48.351562-74.980469 112.640625-74.980469 181.019531s26.628906 132.667969 74.980469 181.019531c48.351562 48.351563 112.640625 74.980469 181.019531 74.980469s132.667969-26.628906 181.019531-74.980469c48.351563-48.351562 74.980469-112.640625 74.980469-181.019531s-26.628906-132.667969-74.980469-181.019531zm-10.753906 351.285156c-45.480469 45.480469-105.949219 70.527344-170.265625 70.527344s-124.785156-25.046875-170.265625-70.527344-70.527344-105.949219-70.527344-170.265625 25.046875-124.785156 70.527344-170.265625 105.949219-70.527344 170.265625-70.527344 124.785156 25.046875 170.265625 70.527344 70.527344 105.949219 70.527344 170.265625-25.046875 124.785156-70.527344 170.265625zm0 0"/><path d="m256 44.679688c-27.855469 0-54.957031 5.355468-80.542969 15.917968-1.996093.824219-3.546875 2.457032-4.269531 4.496094-.71875 2.039062-.535156 4.285156.5 6.183594l165.738281 302.800781c2.015625 3.679687 6.632813 5.035156 10.320313 3.015625 3.683594-2.015625 5.035156-6.636719 3.019531-10.320312l-18.375-33.566407 16.472656-16.472656c1.425781-1.425781 2.226563-3.359375 2.226563-5.375s-.800782-3.953125-2.226563-5.378906c-13.769531-13.769531-29.949219-24.042969-48.117187-30.589844l-8.585938-15.691406c24.707032 6.328125 47.121094 19.09375 65.496094 37.476562 1.425781 1.425781 3.359375 2.230469 5.375 2.230469h.003906c2.015625 0 3.949219-.800781 5.375-2.226562l23.90625-23.910157c1.425782-1.425781 2.226563-3.359375 2.226563-5.375 0-2.019531-.800781-3.953125-2.226563-5.378906-34.6875-34.675781-80.492187-54.554687-129.414062-56.265625l-6.863282-12.539062c54.859376.007812 106.382813 21.320312 145.082032 60.011718 1.484375 1.484375 3.429687 2.226563 5.378906 2.226563 1.945312 0 3.890625-.742188 5.375-2.226563l23.898438-23.898437c2.96875-2.96875 2.96875-7.78125 0-10.75-47.957032-47.957031-111.800782-74.367188-179.773438-74.367188-8.667969 0-17.410156.449219-26.0625 1.320313l-40.746094-74.449219c21.378906-7.761719 43.8125-11.6875 66.808594-11.6875 108.128906 0 196.101562 87.972656 196.101562 196.109375 0 61.035156-28.546874 118.589844-76.78125 155.636719l-9.957031-18.1875c-2.011719-3.683594-6.632812-5.035157-10.320312-3.019531-3.683594 2.015624-5.035157 6.636718-3.019531 10.320312l14.125 25.804688c1.039062 1.894531 2.835937 3.261718 4.941406 3.753906.574218.132812 1.152344.195312 1.726562.195312 1.550782 0 3.078125-.472656 4.367188-1.375 56.433594-39.578125 90.125-104.296875 90.125-173.128906 0-116.523438-94.792969-211.320312-211.308594-211.320312zm76.5625 266.847656-7.777344 7.777344-11.886718-21.710938c6.996093 3.921875 13.566406 8.570312 19.664062 13.933594zm43.511719-43.519532-13.164063 13.160157c-22.625-20.617188-50.203125-34.003907-80.355468-39.019531l-11.027344-20.144532c39.082031 3.367188 75.582031 19.390625 104.546875 46.003906zm-120.074219-108.089843c61.363281 0 119.144531 22.886719 163.558594 64.613281l-13.152344 13.152344c-40.90625-38.226563-94.019531-59.183594-150.40625-59.183594-2.722656 0-5.460938.066406-8.195312.167969l-9.878907-18.054688c6.019531-.445312 12.0625-.695312 18.074219-.695312zm0 0"/><path d="m145.847656 85.453125c-1.039062-1.898437-2.835937-3.261719-4.945312-3.753906-2.105469-.492188-4.320313-.0625-6.09375 1.179687-56.433594 39.578125-90.128906 104.296875-90.128906 173.121094 0 116.523438 94.796874 211.320312 211.320312 211.320312 27.859375 0 54.957031-5.351562 80.539062-15.910156 2-.824218 3.550782-2.457031 4.269532-4.496094.71875-2.039062.539062-4.289062-.5-6.183593zm101.058594 216.308594c-20.125 1.84375-38.953125 9.789062-54.300781 22.945312l-13.175781-13.179687c16.433593-14.453125 36.238281-23.773438 57.90625-27.246094zm33.753906 61.667969-24.660156 24.660156-32.980469-32.980469c9.457031-7.152344 20.921875-11.023437 32.980469-11.023437 5.210938 0 10.328125.730468 15.253906 2.160156zm-94.949218-173.46875c-29.699219 9.960937-57.125 26.277343-80.113282 47.722656l-13.15625-13.152344c24.488282-23.042969 52.746094-40.234375 84.164063-51.207031zm70.289062 262.148437c-108.136719 0-196.109375-87.972656-196.109375-196.109375 0-61.03125 28.546875-118.582031 76.78125-155.628906l32.546875 59.460937c-34.644531 12.546875-66.644531 32.894531-92.992188 59.238281-2.96875 2.972657-2.96875 7.785157 0 10.753907l23.898438 23.898437c1.425781 1.425782 3.359375 2.226563 5.375 2.226563 2.019531 0 3.953125-.800781 5.378906-2.226563 23.042969-23.042968 51.375-40.316406 82.25-50.207031l6.066406 11.082031c-12.523437 3.84375-24.632812 8.941406-36.105468 15.253906-3.679688 2.023438-5.019532 6.648438-2.992188 10.328126 1.382813 2.515624 3.984375 3.9375 6.667969 3.9375 1.238281 0 2.496094-.304688 3.660156-.945313 11.46875-6.3125 23.632813-11.324219 36.226563-14.945313l9.1875 16.785157c-24.84375 6.421875-47.648438 18.761719-66.765625 36.164062l-13.160157-13.167969c3.296876-3.027343 6.71875-5.945312 10.230469-8.71875 3.292969-2.601562 3.855469-7.382812 1.253907-10.679687-2.605469-3.296875-7.386719-3.855469-10.683594-1.253906-5.964844 4.714843-11.699219 9.816406-17.046875 15.160156-2.96875 2.96875-2.96875 7.78125 0 10.75l23.898437 23.910156c1.425782 1.425781 3.367188 2.226563 5.386719 2.226563 2.015625 0 3.949219-.800782 5.375-2.226563 19.164063-19.164062 42.949219-32.355469 69.066406-38.363281l6.238281 11.398438c-25.242187 5.089843-48.058593 17.328124-66.507812 35.765624-1.429688 1.425782-2.230469 3.359376-2.230469 5.378907 0 2.015625.800781 3.949219 2.226563 5.375l23.898437 23.898437c1.484375 1.484375 3.429688 2.226563 5.375 2.226563 1.945313 0 3.894531-.742188 5.378907-2.226563 15.292968-15.296875 35.589843-23.804687 57.234374-24.058594l6.867188 12.546876c-1.949219-.160157-3.910156-.242188-5.878906-.242188-18.6875 0-36.257813 7.273438-49.480469 20.484375-1.425781 1.425781-2.226563 3.359375-2.226563 5.378906 0 2.015625.800782 3.953125 2.226563 5.378907l44.101563 44.101562c1.484374 1.484375 3.433593 2.226562 5.378906 2.226562 1.945312 0 3.890625-.742187 5.375-2.226562l26.890625-26.890625 34.539062 63.097656c-21.371093 7.757813-43.804687 11.683594-66.800781 11.683594zm0 0"/></svg>