<svg id="Capa_1" enable-background="new 0 0 510 510" height="512" viewBox="0 0 510 510" width="512" xmlns="http://www.w3.org/2000/svg"><g><path d="m236.708 417.996-10.396 13.316-1.523 17.19 45.211 45.211 10-20.213-10-22.213z" fill="#ecf1fd"/><path d="m298.713 480-28.713-28.713v42.426l16.287 16.287h216.213v-30z" fill="#dbe3fd"/><path d="m75 0c-24.813 0-45 20.188-45 45v23l10 36.667-10 30.333v120c0 24.814 20.187 45 45 45h195l10-108.334-10-191.666z" fill="#7ed7f5"/><path d="m465 0h-195v300h195c24.813 0 45-20.186 45-45v-120l-10-30.125 10-36.875c0-7.951 0-15.039 0-23 0-24.812-20.187-45-45-45z" fill="#6abbea"/><path d="m30 68v67h240l10-33.5-10-33.5z" fill="#477898"/><path d="m270 68h240v67h-240z" fill="#2c4a5d"/><g fill="#5698e1"><path d="m375 217h30v30h-30z"/><path d="m315 217h30v30h-30z"/><path d="m435 217h30v30h-30z"/></g><path d="m90 187h120v30h-120z" fill="#ecf1fd"/><path d="m0 390c0 66.274 53.726 120 120 120l10-107.666-10-132.334c-66.274 0-120 53.726-120 120z" fill="#ffe377"/><path d="m120 270v240c66.274 0 120-53.726 120-120s-53.726-120-120-120z" fill="#ffb555"/><path d="m322.489 420h30v30h-30z" fill="#a4e786"/><path d="m382.495 420.002h120.005v30h-120.005z" fill="#dbe3fd"/><path d="m322.489 360h30v30h-30z" fill="#a4e786"/><path d="m382.495 360.002h120.005v30h-120.005z" fill="#dbe3fd"/><path d="m105 315v83.027l15 10 10-46.513-10-46.514z" fill="#e38450"/><path d="m173.32 407.52-38.32-25.547v-66.973h-15v93.027l36.68 24.453z" fill="#dd4f4f"/></g></svg>