<svg id="Layer_1" enable-background="new 0 0 511 511" height="512" viewBox="0 0 511 511" width="512" xmlns="http://www.w3.org/2000/svg"><g><path d="m399.5 311.5h48v160h-48z" fill="#ffe477"/><path d="m399.5 455.5h48v16h-48z" fill="#ffb655"/><path d="m431.5 311.5h16v160h-16z" fill="#ffb655"/><path d="m303.5 215.5h48v256h-48z" fill="#d7fc7e"/><path d="m303.5 455.5h48v16h-48z" fill="#55e072"/><path d="m335.5 215.5h16v256h-16z" fill="#55e072"/><path d="m207.5 215.5h48v256h-48z" fill="#d7fc7e"/><path d="m207.5 455.5h48v16h-48z" fill="#55e072"/><path d="m239.5 215.5h16v256h-16z" fill="#55e072"/><path d="m111.5 311.5h48v160h-48z" fill="#ffe477"/><path d="m111.5 455.5h48v16h-48z" fill="#ffb655"/><path d="m143.5 311.5h16v160h-16z" fill="#ffb655"/><path d="m39.5 471.5v-464h-32v496h496v-32z" fill="#f05475"/><path d="m39.5 471.5v-464h-16v480h464v16h16v-32z" fill="#d03582"/><g fill="#54c9f3"><circle cx="135.5" cy="247.5" r="16"/><circle cx="231.5" cy="151.5" r="16"/><circle cx="327.5" cy="151.5" r="16"/><circle cx="423.5" cy="247.5" r="16"/></g><g><path d="m455 464v-160h-63v160h-33v-104.5h-15v104.5h-33v-241h33v120.5h15v-135.5h-63v256h-33v-256h-63v256h-33v-160h-63v160h-57v-200.5h-15v215.5h464v17h-481v-481h17v232.5h15v-247.5h-47v511h511v-47zm-48-145h33v145h-33zm-192-96h33v241h-33zm-96 96h33v145h-33z"/><path d="m135.5 271c12.958 0 23.5-10.542 23.5-23.5 0-3.748-.887-7.292-2.454-10.439l64.515-64.515c3.147 1.567 6.691 2.454 10.439 2.454 10.336 0 19.128-6.71 22.266-16h51.469c3.138 9.29 11.93 16 22.266 16 3.748 0 7.292-.887 10.439-2.454l64.515 64.515c-1.568 3.147-2.454 6.691-2.454 10.439 0 12.958 10.542 23.5 23.5 23.5s23.5-10.542 23.5-23.5-10.543-23.5-23.501-23.5c-3.748 0-7.292.887-10.439 2.454l-64.515-64.515c1.568-3.147 2.454-6.691 2.454-10.439 0-12.958-10.542-23.5-23.5-23.5-10.336 0-19.128 6.71-22.266 16h-51.469c-3.138-9.29-11.93-16-22.266-16-12.958 0-23.5 10.542-23.5 23.5 0 3.748.887 7.292 2.454 10.439l-64.515 64.515c-3.147-1.567-6.691-2.454-10.439-2.454-12.958 0-23.5 10.542-23.5 23.5s10.543 23.5 23.501 23.5zm296.5-23.5c0 4.687-3.813 8.5-8.5 8.5s-8.5-3.813-8.5-8.5 3.813-8.5 8.5-8.5 8.5 3.813 8.5 8.5zm-104.5-104.5c4.687 0 8.5 3.813 8.5 8.5s-3.813 8.5-8.5 8.5-8.5-3.813-8.5-8.5 3.813-8.5 8.5-8.5zm-96 0c4.687 0 8.5 3.813 8.5 8.5s-3.813 8.5-8.5 8.5-8.5-3.813-8.5-8.5 3.813-8.5 8.5-8.5zm-96 96c4.687 0 8.5 3.813 8.5 8.5s-3.813 8.5-8.5 8.5-8.5-3.813-8.5-8.5 3.813-8.5 8.5-8.5z"/><path d="m239.5 88h16v15h-16z"/><path d="m271.5 88h16v15h-16z"/><path d="m303.5 88h16v15h-16z"/></g></g></svg>